<svg width="24" height="25" viewBox="0 0 24 25" fill="none" xmlns="http://www.w3.org/2000/svg">
<g clip-path="url(#clip0_5_116)">
<path d="M19 21.5H5C4.73478 21.5 4.48043 21.3946 4.29289 21.2071C4.10536 21.0196 4 20.7652 4 20.5V11.5H1L11.327 2.11198C11.5111 1.94446 11.7511 1.85162 12 1.85162C12.2489 1.85162 12.4889 1.94446 12.673 2.11198L23 11.5H20V20.5C20 20.7652 19.8946 21.0196 19.7071 21.2071C19.5196 21.3946 19.2652 21.5 19 21.5ZM6 19.5H18V9.65698L12 4.20298L6 9.65698V19.5ZM9 10.5H15V16.5H9V10.5ZM11 12.5V14.5H13V12.5H11Z" fill="#6484D3"/>
</g>
<defs>
<clipPath id="clip0_5_116">
<rect width="24" height="24" fill="white" transform="translate(0 0.5)"/>
</clipPath>
</defs>
</svg>
