<svg width="24" height="25" viewBox="0 0 24 25" fill="none" xmlns="http://www.w3.org/2000/svg">
<g clip-path="url(#clip0_5_120)">
<path d="M9 1.5V3.5H15V1.5H17V3.5H21C21.2652 3.5 21.5196 3.60536 21.7071 3.79289C21.8946 3.98043 22 4.23478 22 4.5V20.5C22 20.7652 21.8946 21.0196 21.7071 21.2071C21.5196 21.3946 21.2652 21.5 21 21.5H3C2.73478 21.5 2.48043 21.3946 2.29289 21.2071C2.10536 21.0196 2 20.7652 2 20.5V4.5C2 4.23478 2.10536 3.98043 2.29289 3.79289C2.48043 3.60536 2.73478 3.5 3 3.5H7V1.5H9ZM20 10.5H4V19.5H20V10.5ZM15.036 11.636L16.45 13.05L11.5 18L7.964 14.464L9.38 13.05L11.501 15.172L15.037 11.636H15.036ZM7 5.5H4V8.5H20V5.5H17V6.5H15V5.5H9V6.5H7V5.5Z" fill="#4D3D3B"/>
</g>
<defs>
<clipPath id="clip0_5_120">
<rect width="24" height="24" fill="white" transform="translate(0 0.5)"/>
</clipPath>
</defs>
</svg>
